<svg width="32" height="32" viewBox="0 0 32 32" fill="none" xmlns="http://www.w3.org/2000/svg">
<g id="Icon / cloud-download">
<g id="icon">
<path d="M25.2639 14.8161C24.6812 10.2268 20.7505 6.66681 16.0052 6.66681C12.3305 6.66681 9.13854 8.81481 7.68121 12.2001C4.81721 13.0561 2.67188 15.7601 2.67188 18.6668C2.67188 22.3428 5.66254 25.3335 9.33854 25.3335H10.6719V22.6668H9.33854C7.13321 22.6668 5.33854 20.8721 5.33854 18.6668C5.33854 16.7948 6.93721 14.9908 8.90254 14.6455L9.67721 14.5095L9.93321 13.7655C10.8705 11.0308 13.1972 9.33348 16.0052 9.33348C19.6812 9.33348 22.6719 12.3241 22.6719 16.0001V17.3335H24.0052C25.4759 17.3335 26.6719 18.5295 26.6719 20.0001C26.6719 21.4708 25.4759 22.6668 24.0052 22.6668H21.3385V25.3335H24.0052C26.9465 25.3335 29.3385 22.9415 29.3385 20.0001C29.337 18.8048 28.9347 17.6446 28.196 16.7048C27.4574 15.765 26.425 15.1001 25.2639 14.8161Z" fill="#FAFAFA"/>
<path d="M17.3385 18.6668V13.3335H14.6719V18.6668H10.6719L16.0052 25.3335L21.3385 18.6668H17.3385Z" fill="#FAFAFA"/>
</g>
</g>
</svg>
